<svg width="234" height="70" viewBox="0 0 234 70" fill="none" xmlns="http://www.w3.org/2000/svg">
<g clip-path="url(#clip0_5509_328)">
<path d="M215 48.3333H233.333V63.3333H215V48.3333Z" fill="white"/>
</g>
<path d="M45.41 63.3334H5.41162V4.98381H45.41V16.6619H17.0897V28.3399H36.2547V40.018H17.0897V51.6554H45.41V63.3334Z" fill="white"/>
<path d="M59.5197 22.4806C59.5197 20.0663 59.9809 17.8012 60.9032 15.6853C61.8255 13.5694 63.0733 11.7248 64.6467 10.1514C66.2471 8.55097 68.1053 7.28958 70.2212 6.36727C72.3371 5.44496 74.6022 4.98381 77.0164 4.98381H103.791V16.6619H77.0164C76.2027 16.6619 75.4431 16.8111 74.7378 17.1095C74.0325 17.4079 73.4086 17.8283 72.8661 18.3709C72.3507 18.8863 71.9437 19.4966 71.6454 20.2019C71.347 20.9072 71.1978 21.6668 71.1978 22.4806C71.1978 23.2944 71.347 24.0675 71.6454 24.7999C71.9437 25.5052 72.3507 26.1291 72.8661 26.6716C73.4086 27.187 74.0325 27.5939 74.7378 27.8923C75.4431 28.1907 76.2027 28.3399 77.0164 28.3399H88.6945C91.1088 28.3399 93.3739 28.8011 95.4898 29.7234C97.6328 30.6186 99.491 31.8664 101.064 33.4669C102.665 35.0402 103.913 36.8984 104.808 39.0414C105.73 41.1573 106.191 43.4224 106.191 45.8367C106.191 48.251 105.73 50.516 104.808 52.6319C103.913 54.7478 102.665 56.606 101.064 58.2065C99.491 59.7798 97.6328 61.0277 95.4898 61.95C93.3739 62.8723 91.1088 63.3334 88.6945 63.3334H62.7749V51.6554H88.6945C89.5083 51.6554 90.2679 51.5062 90.9732 51.2078C91.6785 50.9094 92.2888 50.5025 92.8042 49.9871C93.3467 49.4445 93.7672 48.8206 94.0656 48.1153C94.364 47.41 94.5132 46.6505 94.5132 45.8367C94.5132 45.0229 94.364 44.2633 94.0656 43.558C93.7672 42.8527 93.3467 42.2424 92.8042 41.727C92.2888 41.1844 91.6785 40.764 90.9732 40.4656C90.2679 40.1672 89.5083 40.018 88.6945 40.018H77.0164C74.6022 40.018 72.3371 39.5568 70.2212 38.6345C68.1053 37.7122 66.2471 36.4644 64.6467 34.891C63.0733 33.2906 61.8255 31.4324 60.9032 29.3165C59.9809 27.1735 59.5197 24.8948 59.5197 22.4806Z" fill="white"/>
<path d="M170.309 57.4334C167.596 59.7391 164.572 61.5159 161.235 62.7638C157.899 63.9845 154.426 64.5948 150.819 64.5948C148.052 64.5948 145.38 64.2286 142.803 63.4962C140.253 62.7909 137.866 61.7872 135.641 60.4851C133.417 59.1559 131.382 57.5826 129.538 55.7651C127.693 53.9204 126.12 51.8859 124.818 49.6615C123.515 47.41 122.498 44.9958 121.766 42.4187C121.061 39.8417 120.708 37.1697 120.708 34.4028C120.708 31.6358 121.061 28.9774 121.766 26.4275C122.498 23.8776 123.515 21.4904 124.818 19.266C126.12 17.0145 127.693 14.98 129.538 13.1625C131.382 11.3179 133.417 9.74455 135.641 8.44246C137.866 7.14038 140.253 6.13669 142.803 5.4314C145.38 4.69897 148.052 4.33276 150.819 4.33276C154.426 4.33276 157.899 4.95668 161.235 6.20451C164.572 7.42521 167.596 9.18845 170.309 11.4942L164.206 21.6668C162.442 19.8764 160.408 18.4794 158.102 17.4757C155.796 16.4449 153.368 15.9294 150.819 15.9294C148.269 15.9294 145.868 16.4177 143.616 17.3943C141.392 18.3709 139.439 19.7001 137.757 21.3819C136.075 23.0367 134.746 24.9898 133.769 27.2413C132.793 29.4657 132.305 31.8528 132.305 34.4028C132.305 36.9798 132.793 39.3941 133.769 41.6456C134.746 43.8971 136.075 45.8638 137.757 47.5457C139.439 49.2275 141.392 50.5567 143.616 51.5333C145.868 52.5099 148.269 52.9981 150.819 52.9981C152.283 52.9981 153.708 52.8218 155.091 52.4692C156.474 52.1165 157.79 51.6282 159.038 51.0043V34.4028H170.309V57.4334Z" fill="white"/>
<path d="M200.98 63.3334H189.302V4.98381H200.98V63.3334Z" fill="white"/>
<defs>
<clipPath id="clip0_5509_328">
<rect width="233.333" height="70" fill="white"/>
</clipPath>
</defs>
</svg>
